%TF.GenerationSoftware,KiCad,Pcbnew,9.0.7-9.0.7~ubuntu22.04.1*%
%TF.CreationDate,2026-01-29T18:43:31+05:30*%
%TF.ProjectId,TIME_BASED_RELAY,54494d45-5f42-4415-9345-445f52454c41,rev?*%
%TF.SameCoordinates,Original*%
%TF.FileFunction,Soldermask,Bot*%
%TF.FilePolarity,Negative*%
%FSLAX46Y46*%
G04 Gerber Fmt 4.6, Leading zero omitted, Abs format (unit mm)*
G04 Created by KiCad (PCBNEW 9.0.7-9.0.7~ubuntu22.04.1) date 2026-01-29 18:43:31*
%MOMM*%
%LPD*%
G01*
G04 APERTURE LIST*
G04 Aperture macros list*
%AMRoundRect*
0 Rectangle with rounded corners*
0 $1 Rounding radius*
0 $2 $3 $4 $5 $6 $7 $8 $9 X,Y pos of 4 corners*
0 Add a 4 corners polygon primitive as box body*
4,1,4,$2,$3,$4,$5,$6,$7,$8,$9,$2,$3,0*
0 Add four circle primitives for the rounded corners*
1,1,$1+$1,$2,$3*
1,1,$1+$1,$4,$5*
1,1,$1+$1,$6,$7*
1,1,$1+$1,$8,$9*
0 Add four rect primitives between the rounded corners*
20,1,$1+$1,$2,$3,$4,$5,0*
20,1,$1+$1,$4,$5,$6,$7,0*
20,1,$1+$1,$6,$7,$8,$9,0*
20,1,$1+$1,$8,$9,$2,$3,0*%
G04 Aperture macros list end*
%ADD10RoundRect,0.750000X-0.750000X-0.750000X0.750000X-0.750000X0.750000X0.750000X-0.750000X0.750000X0*%
%ADD11C,3.000000*%
%ADD12RoundRect,0.102000X-0.990000X-0.990000X0.990000X-0.990000X0.990000X0.990000X-0.990000X0.990000X0*%
%ADD13C,2.184000*%
%ADD14C,2.139000*%
%ADD15RoundRect,0.250001X-1.149999X-1.149999X1.149999X-1.149999X1.149999X1.149999X-1.149999X1.149999X0*%
%ADD16C,2.800000*%
%ADD17RoundRect,0.250000X0.600000X0.750000X-0.600000X0.750000X-0.600000X-0.750000X0.600000X-0.750000X0*%
%ADD18O,1.700000X2.000000*%
%ADD19RoundRect,0.250001X1.149999X-1.149999X1.149999X1.149999X-1.149999X1.149999X-1.149999X-1.149999X0*%
%ADD20C,0.700000*%
%ADD21C,4.400000*%
%ADD22C,1.800000*%
%ADD23R,1.600000X1.600000*%
%ADD24C,1.600000*%
%ADD25R,2.540000X3.510000*%
G04 APERTURE END LIST*
D10*
%TO.C,F1*%
X131000000Y-49250000D03*
X138620000Y-49250000D03*
D11*
X157590000Y-49250000D03*
X165210000Y-49250000D03*
%TD*%
D12*
%TO.C,K4*%
X85800000Y-80000000D03*
D13*
X85800000Y-92000000D03*
D14*
X83800000Y-86000000D03*
D13*
X98000000Y-80000000D03*
X98000000Y-92000000D03*
%TD*%
D15*
%TO.C,J2*%
X114000000Y-89435000D03*
D16*
X119000000Y-89435000D03*
%TD*%
D17*
%TO.C,PS1*%
X163385000Y-69000000D03*
D18*
X163385000Y-64000000D03*
X134305000Y-74000000D03*
X134305000Y-59000000D03*
%TD*%
D15*
%TO.C,J4*%
X145000000Y-89435000D03*
D16*
X150000000Y-89435000D03*
%TD*%
D19*
%TO.C,J5*%
X163250000Y-86250000D03*
D16*
X163250000Y-81250000D03*
%TD*%
D12*
%TO.C,K3*%
X85800000Y-45900000D03*
D13*
X85800000Y-57900000D03*
D14*
X83800000Y-51900000D03*
D13*
X98000000Y-45900000D03*
X98000000Y-57900000D03*
%TD*%
D15*
%TO.C,J3*%
X129500000Y-89435000D03*
D16*
X134500000Y-89435000D03*
%TD*%
D20*
%TO.C,H3*%
X78933274Y-31833274D03*
X79416548Y-30666548D03*
X79416548Y-33000000D03*
X80583274Y-30183274D03*
D21*
X80583274Y-31833274D03*
D20*
X80583274Y-33483274D03*
X81750000Y-30666548D03*
X81750000Y-33000000D03*
X82233274Y-31833274D03*
%TD*%
D12*
%TO.C,K1*%
X85800000Y-28850000D03*
D13*
X85800000Y-40850000D03*
D14*
X83800000Y-34850000D03*
D13*
X98000000Y-28850000D03*
X98000000Y-40850000D03*
%TD*%
D20*
%TO.C,H2*%
X163350000Y-91833274D03*
X163833274Y-90666548D03*
X163833274Y-93000000D03*
X165000000Y-90183274D03*
D21*
X165000000Y-91833274D03*
D20*
X165000000Y-93483274D03*
X166166726Y-90666548D03*
X166166726Y-93000000D03*
X166650000Y-91833274D03*
%TD*%
%TO.C,H4*%
X163350000Y-31750000D03*
X163833274Y-30583274D03*
X163833274Y-32916726D03*
X165000000Y-30100000D03*
D21*
X165000000Y-31750000D03*
D20*
X165000000Y-33400000D03*
X166166726Y-30583274D03*
X166166726Y-32916726D03*
X166650000Y-31750000D03*
%TD*%
D12*
%TO.C,K2*%
X85800000Y-62950000D03*
D13*
X85800000Y-74950000D03*
D14*
X83800000Y-68950000D03*
D13*
X98000000Y-62950000D03*
X98000000Y-74950000D03*
%TD*%
D22*
%TO.C,RV1*%
X126000000Y-50750000D03*
X122000000Y-58250000D03*
%TD*%
D20*
%TO.C,H1*%
X78600000Y-91850000D03*
X79083274Y-90683274D03*
X79083274Y-93016726D03*
X80250000Y-90200000D03*
D21*
X80250000Y-91850000D03*
D20*
X80250000Y-93500000D03*
X81416726Y-90683274D03*
X81416726Y-93016726D03*
X81900000Y-91850000D03*
%TD*%
D23*
%TO.C,RN1*%
X112250000Y-66500000D03*
D24*
X114790000Y-66500000D03*
X117330000Y-66500000D03*
X119870000Y-66500000D03*
X122410000Y-66500000D03*
%TD*%
D25*
%TO.C,J6*%
X161000000Y-66250000D03*
X131640000Y-66250000D03*
%TD*%
M02*
