%TF.GenerationSoftware,KiCad,Pcbnew,9.0.7-9.0.7~ubuntu22.04.1*%
%TF.CreationDate,2026-01-29T18:43:31+05:30*%
%TF.ProjectId,TIME_BASED_RELAY,54494d45-5f42-4415-9345-445f52454c41,rev?*%
%TF.SameCoordinates,Original*%
%TF.FileFunction,Legend,Bot*%
%TF.FilePolarity,Positive*%
%FSLAX46Y46*%
G04 Gerber Fmt 4.6, Leading zero omitted, Abs format (unit mm)*
G04 Created by KiCad (PCBNEW 9.0.7-9.0.7~ubuntu22.04.1) date 2026-01-29 18:43:31*
%MOMM*%
%LPD*%
G01*
G04 APERTURE LIST*
%ADD10C,0.150000*%
%ADD11C,0.120000*%
G04 APERTURE END LIST*
D10*
X146653333Y-73324819D02*
X146653333Y-74039104D01*
X146653333Y-74039104D02*
X146700952Y-74181961D01*
X146700952Y-74181961D02*
X146796190Y-74277200D01*
X146796190Y-74277200D02*
X146939047Y-74324819D01*
X146939047Y-74324819D02*
X147034285Y-74324819D01*
X145748571Y-73324819D02*
X145939047Y-73324819D01*
X145939047Y-73324819D02*
X146034285Y-73372438D01*
X146034285Y-73372438D02*
X146081904Y-73420057D01*
X146081904Y-73420057D02*
X146177142Y-73562914D01*
X146177142Y-73562914D02*
X146224761Y-73753390D01*
X146224761Y-73753390D02*
X146224761Y-74134342D01*
X146224761Y-74134342D02*
X146177142Y-74229580D01*
X146177142Y-74229580D02*
X146129523Y-74277200D01*
X146129523Y-74277200D02*
X146034285Y-74324819D01*
X146034285Y-74324819D02*
X145843809Y-74324819D01*
X145843809Y-74324819D02*
X145748571Y-74277200D01*
X145748571Y-74277200D02*
X145700952Y-74229580D01*
X145700952Y-74229580D02*
X145653333Y-74134342D01*
X145653333Y-74134342D02*
X145653333Y-73896247D01*
X145653333Y-73896247D02*
X145700952Y-73801009D01*
X145700952Y-73801009D02*
X145748571Y-73753390D01*
X145748571Y-73753390D02*
X145843809Y-73705771D01*
X145843809Y-73705771D02*
X146034285Y-73705771D01*
X146034285Y-73705771D02*
X146129523Y-73753390D01*
X146129523Y-73753390D02*
X146177142Y-73801009D01*
X146177142Y-73801009D02*
X146224761Y-73896247D01*
D11*
%TO.C,J6*%
X132010000Y-64350000D02*
X132010000Y-62640000D01*
X132010000Y-68150000D02*
X132010000Y-69860000D01*
X132010000Y-69860000D02*
X135628000Y-69860000D01*
X135628000Y-62640000D02*
X132010000Y-62640000D01*
X138472700Y-74360000D02*
X142460000Y-74360000D01*
X144660000Y-72160000D02*
X142460000Y-74360000D01*
X144660000Y-72160000D02*
X147980000Y-72160000D01*
X147980000Y-72160000D02*
X150180000Y-74360000D01*
X150180000Y-74360000D02*
X154167300Y-74360000D01*
X154167300Y-58140000D02*
X138472700Y-58140000D01*
X157012000Y-69860000D02*
X160630000Y-69860000D01*
X160630000Y-62640000D02*
X157012000Y-62640000D01*
X160630000Y-64350000D02*
X160630000Y-62640000D01*
X160630000Y-68150000D02*
X160630000Y-69860000D01*
X135628000Y-62640000D02*
G75*
G02*
X138474629Y-58138211I10692020J-3610012D01*
G01*
X138474629Y-74361789D02*
G75*
G02*
X135628000Y-69860000I7845391J8111801D01*
G01*
X154165371Y-58138211D02*
G75*
G02*
X157011999Y-62640000I-7845391J-8111799D01*
G01*
X157012000Y-69860000D02*
G75*
G02*
X154165371Y-74361789I-10691979J3609986D01*
G01*
%TD*%
M02*
