%TF.GenerationSoftware,KiCad,Pcbnew,9.0.7-9.0.7~ubuntu22.04.1*%
%TF.CreationDate,2026-01-29T18:43:31+05:30*%
%TF.ProjectId,TIME_BASED_RELAY,54494d45-5f42-4415-9345-445f52454c41,rev?*%
%TF.SameCoordinates,Original*%
%TF.FileFunction,Soldermask,Top*%
%TF.FilePolarity,Negative*%
%FSLAX46Y46*%
G04 Gerber Fmt 4.6, Leading zero omitted, Abs format (unit mm)*
G04 Created by KiCad (PCBNEW 9.0.7-9.0.7~ubuntu22.04.1) date 2026-01-29 18:43:31*
%MOMM*%
%LPD*%
G01*
G04 APERTURE LIST*
G04 Aperture macros list*
%AMRoundRect*
0 Rectangle with rounded corners*
0 $1 Rounding radius*
0 $2 $3 $4 $5 $6 $7 $8 $9 X,Y pos of 4 corners*
0 Add a 4 corners polygon primitive as box body*
4,1,4,$2,$3,$4,$5,$6,$7,$8,$9,$2,$3,0*
0 Add four circle primitives for the rounded corners*
1,1,$1+$1,$2,$3*
1,1,$1+$1,$4,$5*
1,1,$1+$1,$6,$7*
1,1,$1+$1,$8,$9*
0 Add four rect primitives between the rounded corners*
20,1,$1+$1,$2,$3,$4,$5,0*
20,1,$1+$1,$4,$5,$6,$7,0*
20,1,$1+$1,$6,$7,$8,$9,0*
20,1,$1+$1,$8,$9,$2,$3,0*%
G04 Aperture macros list end*
%ADD10C,0.010000*%
%ADD11RoundRect,0.250000X-0.350000X-0.450000X0.350000X-0.450000X0.350000X0.450000X-0.350000X0.450000X0*%
%ADD12RoundRect,0.150000X0.587500X0.150000X-0.587500X0.150000X-0.587500X-0.150000X0.587500X-0.150000X0*%
%ADD13RoundRect,0.750000X-0.750000X-0.750000X0.750000X-0.750000X0.750000X0.750000X-0.750000X0.750000X0*%
%ADD14C,3.000000*%
%ADD15RoundRect,0.102000X-0.990000X-0.990000X0.990000X-0.990000X0.990000X0.990000X-0.990000X0.990000X0*%
%ADD16C,2.184000*%
%ADD17C,2.139000*%
%ADD18RoundRect,0.250000X0.475000X-0.337500X0.475000X0.337500X-0.475000X0.337500X-0.475000X-0.337500X0*%
%ADD19RoundRect,0.102000X-0.400000X-0.200000X0.400000X-0.200000X0.400000X0.200000X-0.400000X0.200000X0*%
%ADD20RoundRect,0.102000X-0.200000X-0.400000X0.200000X-0.400000X0.200000X0.400000X-0.200000X0.400000X0*%
%ADD21RoundRect,0.102000X-0.725000X-0.725000X0.725000X-0.725000X0.725000X0.725000X-0.725000X0.725000X0*%
%ADD22RoundRect,0.102000X-0.350000X-0.350000X0.350000X-0.350000X0.350000X0.350000X-0.350000X0.350000X0*%
%ADD23RoundRect,0.250000X0.650000X-1.000000X0.650000X1.000000X-0.650000X1.000000X-0.650000X-1.000000X0*%
%ADD24R,1.000000X1.250000*%
%ADD25RoundRect,0.250000X-0.325000X-0.450000X0.325000X-0.450000X0.325000X0.450000X-0.325000X0.450000X0*%
%ADD26RoundRect,0.250000X0.325000X0.450000X-0.325000X0.450000X-0.325000X-0.450000X0.325000X-0.450000X0*%
%ADD27RoundRect,0.250001X-1.149999X-1.149999X1.149999X-1.149999X1.149999X1.149999X-1.149999X1.149999X0*%
%ADD28C,2.800000*%
%ADD29RoundRect,0.250000X0.600000X0.750000X-0.600000X0.750000X-0.600000X-0.750000X0.600000X-0.750000X0*%
%ADD30O,1.700000X2.000000*%
%ADD31RoundRect,0.250000X-0.450000X0.350000X-0.450000X-0.350000X0.450000X-0.350000X0.450000X0.350000X0*%
%ADD32RoundRect,0.250001X1.149999X-1.149999X1.149999X1.149999X-1.149999X1.149999X-1.149999X-1.149999X0*%
%ADD33RoundRect,0.250000X-0.475000X0.337500X-0.475000X-0.337500X0.475000X-0.337500X0.475000X0.337500X0*%
%ADD34RoundRect,0.250000X0.350000X0.450000X-0.350000X0.450000X-0.350000X-0.450000X0.350000X-0.450000X0*%
%ADD35C,0.700000*%
%ADD36C,4.400000*%
%ADD37RoundRect,0.375000X0.375000X-0.625000X0.375000X0.625000X-0.375000X0.625000X-0.375000X-0.625000X0*%
%ADD38RoundRect,0.500000X1.400000X-0.500000X1.400000X0.500000X-1.400000X0.500000X-1.400000X-0.500000X0*%
%ADD39RoundRect,0.150000X0.625000X-0.150000X0.625000X0.150000X-0.625000X0.150000X-0.625000X-0.150000X0*%
%ADD40RoundRect,0.250000X0.650000X-0.350000X0.650000X0.350000X-0.650000X0.350000X-0.650000X-0.350000X0*%
%ADD41RoundRect,0.250000X-0.337500X-0.475000X0.337500X-0.475000X0.337500X0.475000X-0.337500X0.475000X0*%
%ADD42RoundRect,0.150000X-0.875000X-0.150000X0.875000X-0.150000X0.875000X0.150000X-0.875000X0.150000X0*%
%ADD43RoundRect,0.250000X0.337500X0.475000X-0.337500X0.475000X-0.337500X-0.475000X0.337500X-0.475000X0*%
%ADD44C,1.800000*%
%ADD45R,1.600000X1.600000*%
%ADD46C,1.600000*%
G04 APERTURE END LIST*
D10*
%TO.C,U3*%
X129900000Y-31050000D02*
X128250000Y-31050000D01*
X128250000Y-30060000D01*
X128910000Y-29400000D01*
X129900000Y-29400000D01*
X129900000Y-31050000D01*
G36*
X129900000Y-31050000D02*
G01*
X128250000Y-31050000D01*
X128250000Y-30060000D01*
X128910000Y-29400000D01*
X129900000Y-29400000D01*
X129900000Y-31050000D01*
G37*
%TD*%
D11*
%TO.C,R5*%
X103500000Y-68500000D03*
X105500000Y-68500000D03*
%TD*%
D12*
%TO.C,Q4*%
X105500000Y-92900000D03*
X105500000Y-91000000D03*
X103625000Y-91950000D03*
%TD*%
D13*
%TO.C,F1*%
X131000000Y-49250000D03*
X138620000Y-49250000D03*
D14*
X157590000Y-49250000D03*
X165210000Y-49250000D03*
%TD*%
D15*
%TO.C,K4*%
X85800000Y-80000000D03*
D16*
X85800000Y-92000000D03*
D17*
X83800000Y-86000000D03*
D16*
X98000000Y-80000000D03*
X98000000Y-92000000D03*
%TD*%
D18*
%TO.C,C2*%
X122250000Y-30287500D03*
X122250000Y-28212500D03*
%TD*%
D19*
%TO.C,U3*%
X125150000Y-28200000D03*
X125150000Y-29000000D03*
X125150000Y-29800000D03*
X125150000Y-30600000D03*
X125150000Y-31400000D03*
X125150000Y-32200000D03*
X125150000Y-33000000D03*
X125150000Y-33800000D03*
X125150000Y-34600000D03*
X125150000Y-35400000D03*
X125150000Y-36200000D03*
D20*
X126250000Y-37100000D03*
X127050000Y-37100000D03*
X127850000Y-37100000D03*
X128650000Y-37100000D03*
X129450000Y-37100000D03*
X130250000Y-37100000D03*
X131050000Y-37100000D03*
X131850000Y-37100000D03*
X132650000Y-37100000D03*
X133450000Y-37100000D03*
X134250000Y-37100000D03*
X135050000Y-37100000D03*
X135850000Y-37100000D03*
D19*
X136950000Y-36200000D03*
X136950000Y-35400000D03*
X136950000Y-34600000D03*
X136950000Y-33800000D03*
X136950000Y-33000000D03*
X136950000Y-32200000D03*
X136950000Y-31400000D03*
X136950000Y-30600000D03*
X136950000Y-29800000D03*
X136950000Y-29000000D03*
X136950000Y-28200000D03*
D20*
X135850000Y-27300000D03*
X135050000Y-27300000D03*
X134250000Y-27300000D03*
X133450000Y-27300000D03*
X132650000Y-27300000D03*
X131850000Y-27300000D03*
X131050000Y-27300000D03*
X130250000Y-27300000D03*
X129450000Y-27300000D03*
X128650000Y-27300000D03*
X127850000Y-27300000D03*
X127050000Y-27300000D03*
X126250000Y-27300000D03*
D21*
X131050000Y-30225000D03*
X133025000Y-30225000D03*
X133025000Y-32200000D03*
X133025000Y-34175000D03*
X131050000Y-34175000D03*
X129075000Y-34175000D03*
X129075000Y-32200000D03*
X131050000Y-32200000D03*
D22*
X137000000Y-27250000D03*
X137000000Y-37150000D03*
X125100000Y-37150000D03*
X125100000Y-27250000D03*
%TD*%
D18*
%TO.C,C4*%
X119250000Y-30287500D03*
X119250000Y-28212500D03*
%TD*%
D11*
%TO.C,R4*%
X105000000Y-34500000D03*
X107000000Y-34500000D03*
%TD*%
D23*
%TO.C,D4*%
X79000000Y-58500000D03*
X79000000Y-54500000D03*
%TD*%
D11*
%TO.C,R7*%
X103500000Y-86000000D03*
X105500000Y-86000000D03*
%TD*%
D24*
%TO.C,BOOT1*%
X142250000Y-36250000D03*
X142250000Y-28500000D03*
%TD*%
D25*
%TO.C,D7*%
X103450000Y-71000000D03*
X105500000Y-71000000D03*
%TD*%
D24*
%TO.C,RST*%
X114500000Y-36125000D03*
X114500000Y-28375000D03*
%TD*%
D23*
%TO.C,D2*%
X79000000Y-40000000D03*
X79000000Y-36000000D03*
%TD*%
D26*
%TO.C,D1*%
X111300000Y-76500000D03*
X109250000Y-76500000D03*
%TD*%
D27*
%TO.C,J2*%
X114000000Y-89435000D03*
D28*
X119000000Y-89435000D03*
%TD*%
D12*
%TO.C,Q3*%
X105500000Y-59000000D03*
X105500000Y-57100000D03*
X103625000Y-58050000D03*
%TD*%
D29*
%TO.C,PS1*%
X163385000Y-69000000D03*
D30*
X163385000Y-64000000D03*
X134305000Y-74000000D03*
X134305000Y-59000000D03*
%TD*%
D18*
%TO.C,C6*%
X119250000Y-34325000D03*
X119250000Y-32250000D03*
%TD*%
D31*
%TO.C,R3*%
X122250000Y-32250000D03*
X122250000Y-34250000D03*
%TD*%
D27*
%TO.C,J4*%
X145000000Y-89435000D03*
D28*
X150000000Y-89435000D03*
%TD*%
D23*
%TO.C,D5*%
X79000000Y-87500000D03*
X79000000Y-83500000D03*
%TD*%
D12*
%TO.C,Q2*%
X105000000Y-75500000D03*
X105000000Y-73600000D03*
X103125000Y-74550000D03*
%TD*%
D32*
%TO.C,J5*%
X163250000Y-86250000D03*
D28*
X163250000Y-81250000D03*
%TD*%
D33*
%TO.C,C1*%
X111500000Y-72022500D03*
X111500000Y-74097500D03*
%TD*%
D34*
%TO.C,R2*%
X136250000Y-39750000D03*
X134250000Y-39750000D03*
%TD*%
D15*
%TO.C,K3*%
X85800000Y-45900000D03*
D16*
X85800000Y-57900000D03*
D17*
X83800000Y-51900000D03*
D16*
X98000000Y-45900000D03*
X98000000Y-57900000D03*
%TD*%
D27*
%TO.C,J3*%
X129500000Y-89435000D03*
D28*
X134500000Y-89435000D03*
%TD*%
D12*
%TO.C,Q1*%
X106500000Y-42000000D03*
X106500000Y-40100000D03*
X104625000Y-41050000D03*
%TD*%
D35*
%TO.C,H3*%
X78933274Y-31833274D03*
X79416548Y-30666548D03*
X79416548Y-33000000D03*
X80583274Y-30183274D03*
D36*
X80583274Y-31833274D03*
D35*
X80583274Y-33483274D03*
X81750000Y-30666548D03*
X81750000Y-33000000D03*
X82233274Y-31833274D03*
%TD*%
D25*
%TO.C,D8*%
X103950000Y-54500000D03*
X106000000Y-54500000D03*
%TD*%
D37*
%TO.C,U2*%
X111200000Y-53300000D03*
X113500000Y-53300000D03*
D38*
X113500000Y-47000000D03*
D37*
X115800000Y-53300000D03*
%TD*%
D15*
%TO.C,K1*%
X85800000Y-28850000D03*
D16*
X85800000Y-40850000D03*
D17*
X83800000Y-34850000D03*
D16*
X98000000Y-28850000D03*
X98000000Y-40850000D03*
%TD*%
D39*
%TO.C,J1*%
X164500000Y-41750000D03*
X164500000Y-40750000D03*
X164500000Y-39750000D03*
X164500000Y-38750000D03*
D40*
X168375000Y-43050000D03*
X168375000Y-37450000D03*
%TD*%
D35*
%TO.C,H2*%
X163350000Y-91833274D03*
X163833274Y-90666548D03*
X163833274Y-93000000D03*
X165000000Y-90183274D03*
D36*
X165000000Y-91833274D03*
D35*
X165000000Y-93483274D03*
X166166726Y-90666548D03*
X166166726Y-93000000D03*
X166650000Y-91833274D03*
%TD*%
D23*
%TO.C,D3*%
X79000000Y-75500000D03*
X79000000Y-71500000D03*
%TD*%
D25*
%TO.C,D6*%
X104950000Y-37500000D03*
X107000000Y-37500000D03*
%TD*%
D41*
%TO.C,C3*%
X115000000Y-56300000D03*
X117075000Y-56300000D03*
%TD*%
D35*
%TO.C,H4*%
X163350000Y-31750000D03*
X163833274Y-30583274D03*
X163833274Y-32916726D03*
X165000000Y-30100000D03*
D36*
X165000000Y-31750000D03*
D35*
X165000000Y-33400000D03*
X166166726Y-30583274D03*
X166166726Y-32916726D03*
X166650000Y-31750000D03*
%TD*%
D11*
%TO.C,R6*%
X104000000Y-52000000D03*
X106000000Y-52000000D03*
%TD*%
D42*
%TO.C,U1*%
X115600000Y-70305000D03*
X115600000Y-71575000D03*
X115600000Y-72845000D03*
X115600000Y-74115000D03*
X115600000Y-75385000D03*
X115600000Y-76655000D03*
X115600000Y-77925000D03*
X115600000Y-79195000D03*
X124900000Y-79195000D03*
X124900000Y-77925000D03*
X124900000Y-76655000D03*
X124900000Y-75385000D03*
X124900000Y-74115000D03*
X124900000Y-72845000D03*
X124900000Y-71575000D03*
X124900000Y-70305000D03*
%TD*%
D15*
%TO.C,K2*%
X85800000Y-62950000D03*
D16*
X85800000Y-74950000D03*
D17*
X83800000Y-68950000D03*
D16*
X98000000Y-62950000D03*
X98000000Y-74950000D03*
%TD*%
D31*
%TO.C,R1*%
X109000000Y-72000000D03*
X109000000Y-74000000D03*
%TD*%
D43*
%TO.C,C5*%
X112500000Y-56300000D03*
X110425000Y-56300000D03*
%TD*%
D44*
%TO.C,RV1*%
X126000000Y-50750000D03*
X122000000Y-58250000D03*
%TD*%
D35*
%TO.C,H1*%
X78600000Y-91850000D03*
X79083274Y-90683274D03*
X79083274Y-93016726D03*
X80250000Y-90200000D03*
D36*
X80250000Y-91850000D03*
D35*
X80250000Y-93500000D03*
X81416726Y-90683274D03*
X81416726Y-93016726D03*
X81900000Y-91850000D03*
%TD*%
D25*
%TO.C,D9*%
X103450000Y-88500000D03*
X105500000Y-88500000D03*
%TD*%
D45*
%TO.C,RN1*%
X112250000Y-66500000D03*
D46*
X114790000Y-66500000D03*
X117330000Y-66500000D03*
X119870000Y-66500000D03*
X122410000Y-66500000D03*
%TD*%
M02*
