%TF.GenerationSoftware,KiCad,Pcbnew,9.0.7-9.0.7~ubuntu22.04.1*%
%TF.CreationDate,2026-01-29T18:43:31+05:30*%
%TF.ProjectId,TIME_BASED_RELAY,54494d45-5f42-4415-9345-445f52454c41,rev?*%
%TF.SameCoordinates,Original*%
%TF.FileFunction,Paste,Top*%
%TF.FilePolarity,Positive*%
%FSLAX46Y46*%
G04 Gerber Fmt 4.6, Leading zero omitted, Abs format (unit mm)*
G04 Created by KiCad (PCBNEW 9.0.7-9.0.7~ubuntu22.04.1) date 2026-01-29 18:43:31*
%MOMM*%
%LPD*%
G01*
G04 APERTURE LIST*
G04 Aperture macros list*
%AMRoundRect*
0 Rectangle with rounded corners*
0 $1 Rounding radius*
0 $2 $3 $4 $5 $6 $7 $8 $9 X,Y pos of 4 corners*
0 Add a 4 corners polygon primitive as box body*
4,1,4,$2,$3,$4,$5,$6,$7,$8,$9,$2,$3,0*
0 Add four circle primitives for the rounded corners*
1,1,$1+$1,$2,$3*
1,1,$1+$1,$4,$5*
1,1,$1+$1,$6,$7*
1,1,$1+$1,$8,$9*
0 Add four rect primitives between the rounded corners*
20,1,$1+$1,$2,$3,$4,$5,0*
20,1,$1+$1,$4,$5,$6,$7,0*
20,1,$1+$1,$6,$7,$8,$9,0*
20,1,$1+$1,$8,$9,$2,$3,0*%
G04 Aperture macros list end*
%ADD10C,0.010000*%
%ADD11RoundRect,0.250000X-0.350000X-0.450000X0.350000X-0.450000X0.350000X0.450000X-0.350000X0.450000X0*%
%ADD12RoundRect,0.150000X0.587500X0.150000X-0.587500X0.150000X-0.587500X-0.150000X0.587500X-0.150000X0*%
%ADD13RoundRect,0.250000X0.475000X-0.337500X0.475000X0.337500X-0.475000X0.337500X-0.475000X-0.337500X0*%
%ADD14R,0.800000X0.400000*%
%ADD15R,0.400000X0.800000*%
%ADD16R,1.450000X1.450000*%
%ADD17R,0.700000X0.700000*%
%ADD18RoundRect,0.250000X0.650000X-1.000000X0.650000X1.000000X-0.650000X1.000000X-0.650000X-1.000000X0*%
%ADD19R,1.000000X1.250000*%
%ADD20RoundRect,0.250000X-0.325000X-0.450000X0.325000X-0.450000X0.325000X0.450000X-0.325000X0.450000X0*%
%ADD21RoundRect,0.250000X0.325000X0.450000X-0.325000X0.450000X-0.325000X-0.450000X0.325000X-0.450000X0*%
%ADD22RoundRect,0.250000X-0.450000X0.350000X-0.450000X-0.350000X0.450000X-0.350000X0.450000X0.350000X0*%
%ADD23RoundRect,0.250000X-0.475000X0.337500X-0.475000X-0.337500X0.475000X-0.337500X0.475000X0.337500X0*%
%ADD24RoundRect,0.250000X0.350000X0.450000X-0.350000X0.450000X-0.350000X-0.450000X0.350000X-0.450000X0*%
%ADD25RoundRect,0.375000X0.375000X-0.625000X0.375000X0.625000X-0.375000X0.625000X-0.375000X-0.625000X0*%
%ADD26RoundRect,0.500000X1.400000X-0.500000X1.400000X0.500000X-1.400000X0.500000X-1.400000X-0.500000X0*%
%ADD27RoundRect,0.150000X0.625000X-0.150000X0.625000X0.150000X-0.625000X0.150000X-0.625000X-0.150000X0*%
%ADD28RoundRect,0.250000X0.650000X-0.350000X0.650000X0.350000X-0.650000X0.350000X-0.650000X-0.350000X0*%
%ADD29RoundRect,0.250000X-0.337500X-0.475000X0.337500X-0.475000X0.337500X0.475000X-0.337500X0.475000X0*%
%ADD30RoundRect,0.150000X-0.875000X-0.150000X0.875000X-0.150000X0.875000X0.150000X-0.875000X0.150000X0*%
%ADD31RoundRect,0.250000X0.337500X0.475000X-0.337500X0.475000X-0.337500X-0.475000X0.337500X-0.475000X0*%
G04 APERTURE END LIST*
D10*
%TO.C,U3*%
X129800000Y-30950000D02*
X128350000Y-30950000D01*
X128350000Y-30100000D01*
X128950000Y-29500000D01*
X129800000Y-29500000D01*
X129800000Y-30950000D01*
G36*
X129800000Y-30950000D02*
G01*
X128350000Y-30950000D01*
X128350000Y-30100000D01*
X128950000Y-29500000D01*
X129800000Y-29500000D01*
X129800000Y-30950000D01*
G37*
%TD*%
D11*
%TO.C,R5*%
X103500000Y-68500000D03*
X105500000Y-68500000D03*
%TD*%
D12*
%TO.C,Q4*%
X105500000Y-92900000D03*
X105500000Y-91000000D03*
X103625000Y-91950000D03*
%TD*%
D13*
%TO.C,C2*%
X122250000Y-30287500D03*
X122250000Y-28212500D03*
%TD*%
D14*
%TO.C,U3*%
X125150000Y-28200000D03*
X125150000Y-29000000D03*
X125150000Y-29800000D03*
X125150000Y-30600000D03*
X125150000Y-31400000D03*
X125150000Y-32200000D03*
X125150000Y-33000000D03*
X125150000Y-33800000D03*
X125150000Y-34600000D03*
X125150000Y-35400000D03*
X125150000Y-36200000D03*
D15*
X126250000Y-37100000D03*
X127050000Y-37100000D03*
X127850000Y-37100000D03*
X128650000Y-37100000D03*
X129450000Y-37100000D03*
X130250000Y-37100000D03*
X131050000Y-37100000D03*
X131850000Y-37100000D03*
X132650000Y-37100000D03*
X133450000Y-37100000D03*
X134250000Y-37100000D03*
X135050000Y-37100000D03*
X135850000Y-37100000D03*
D14*
X136950000Y-36200000D03*
X136950000Y-35400000D03*
X136950000Y-34600000D03*
X136950000Y-33800000D03*
X136950000Y-33000000D03*
X136950000Y-32200000D03*
X136950000Y-31400000D03*
X136950000Y-30600000D03*
X136950000Y-29800000D03*
X136950000Y-29000000D03*
X136950000Y-28200000D03*
D15*
X135850000Y-27300000D03*
X135050000Y-27300000D03*
X134250000Y-27300000D03*
X133450000Y-27300000D03*
X132650000Y-27300000D03*
X131850000Y-27300000D03*
X131050000Y-27300000D03*
X130250000Y-27300000D03*
X129450000Y-27300000D03*
X128650000Y-27300000D03*
X127850000Y-27300000D03*
X127050000Y-27300000D03*
X126250000Y-27300000D03*
D16*
X131050000Y-30225000D03*
X133025000Y-30225000D03*
X133025000Y-32200000D03*
X133025000Y-34175000D03*
X131050000Y-34175000D03*
X129075000Y-34175000D03*
X129075000Y-32200000D03*
X131050000Y-32200000D03*
D17*
X137000000Y-27250000D03*
X137000000Y-37150000D03*
X125100000Y-37150000D03*
X125100000Y-27250000D03*
%TD*%
D13*
%TO.C,C4*%
X119250000Y-30287500D03*
X119250000Y-28212500D03*
%TD*%
D11*
%TO.C,R4*%
X105000000Y-34500000D03*
X107000000Y-34500000D03*
%TD*%
D18*
%TO.C,D4*%
X79000000Y-58500000D03*
X79000000Y-54500000D03*
%TD*%
D11*
%TO.C,R7*%
X103500000Y-86000000D03*
X105500000Y-86000000D03*
%TD*%
D19*
%TO.C,BOOT1*%
X142250000Y-36250000D03*
X142250000Y-28500000D03*
%TD*%
D20*
%TO.C,D7*%
X103450000Y-71000000D03*
X105500000Y-71000000D03*
%TD*%
D19*
%TO.C,RST*%
X114500000Y-36125000D03*
X114500000Y-28375000D03*
%TD*%
D18*
%TO.C,D2*%
X79000000Y-40000000D03*
X79000000Y-36000000D03*
%TD*%
D21*
%TO.C,D1*%
X111300000Y-76500000D03*
X109250000Y-76500000D03*
%TD*%
D12*
%TO.C,Q3*%
X105500000Y-59000000D03*
X105500000Y-57100000D03*
X103625000Y-58050000D03*
%TD*%
D13*
%TO.C,C6*%
X119250000Y-34325000D03*
X119250000Y-32250000D03*
%TD*%
D22*
%TO.C,R3*%
X122250000Y-32250000D03*
X122250000Y-34250000D03*
%TD*%
D18*
%TO.C,D5*%
X79000000Y-87500000D03*
X79000000Y-83500000D03*
%TD*%
D12*
%TO.C,Q2*%
X105000000Y-75500000D03*
X105000000Y-73600000D03*
X103125000Y-74550000D03*
%TD*%
D23*
%TO.C,C1*%
X111500000Y-72022500D03*
X111500000Y-74097500D03*
%TD*%
D24*
%TO.C,R2*%
X136250000Y-39750000D03*
X134250000Y-39750000D03*
%TD*%
D12*
%TO.C,Q1*%
X106500000Y-42000000D03*
X106500000Y-40100000D03*
X104625000Y-41050000D03*
%TD*%
D20*
%TO.C,D8*%
X103950000Y-54500000D03*
X106000000Y-54500000D03*
%TD*%
D25*
%TO.C,U2*%
X111200000Y-53300000D03*
X113500000Y-53300000D03*
D26*
X113500000Y-47000000D03*
D25*
X115800000Y-53300000D03*
%TD*%
D27*
%TO.C,J1*%
X164500000Y-41750000D03*
X164500000Y-40750000D03*
X164500000Y-39750000D03*
X164500000Y-38750000D03*
D28*
X168375000Y-43050000D03*
X168375000Y-37450000D03*
%TD*%
D18*
%TO.C,D3*%
X79000000Y-75500000D03*
X79000000Y-71500000D03*
%TD*%
D20*
%TO.C,D6*%
X104950000Y-37500000D03*
X107000000Y-37500000D03*
%TD*%
D29*
%TO.C,C3*%
X115000000Y-56300000D03*
X117075000Y-56300000D03*
%TD*%
D11*
%TO.C,R6*%
X104000000Y-52000000D03*
X106000000Y-52000000D03*
%TD*%
D30*
%TO.C,U1*%
X115600000Y-70305000D03*
X115600000Y-71575000D03*
X115600000Y-72845000D03*
X115600000Y-74115000D03*
X115600000Y-75385000D03*
X115600000Y-76655000D03*
X115600000Y-77925000D03*
X115600000Y-79195000D03*
X124900000Y-79195000D03*
X124900000Y-77925000D03*
X124900000Y-76655000D03*
X124900000Y-75385000D03*
X124900000Y-74115000D03*
X124900000Y-72845000D03*
X124900000Y-71575000D03*
X124900000Y-70305000D03*
%TD*%
D22*
%TO.C,R1*%
X109000000Y-72000000D03*
X109000000Y-74000000D03*
%TD*%
D31*
%TO.C,C5*%
X112500000Y-56300000D03*
X110425000Y-56300000D03*
%TD*%
D20*
%TO.C,D9*%
X103450000Y-88500000D03*
X105500000Y-88500000D03*
%TD*%
M02*
