%TF.GenerationSoftware,KiCad,Pcbnew,9.0.7-9.0.7~ubuntu22.04.1*%
%TF.CreationDate,2026-01-29T18:43:31+05:30*%
%TF.ProjectId,TIME_BASED_RELAY,54494d45-5f42-4415-9345-445f52454c41,rev?*%
%TF.SameCoordinates,Original*%
%TF.FileFunction,Copper,L2,Bot*%
%TF.FilePolarity,Positive*%
%FSLAX46Y46*%
G04 Gerber Fmt 4.6, Leading zero omitted, Abs format (unit mm)*
G04 Created by KiCad (PCBNEW 9.0.7-9.0.7~ubuntu22.04.1) date 2026-01-29 18:43:31*
%MOMM*%
%LPD*%
G01*
G04 APERTURE LIST*
G04 Aperture macros list*
%AMRoundRect*
0 Rectangle with rounded corners*
0 $1 Rounding radius*
0 $2 $3 $4 $5 $6 $7 $8 $9 X,Y pos of 4 corners*
0 Add a 4 corners polygon primitive as box body*
4,1,4,$2,$3,$4,$5,$6,$7,$8,$9,$2,$3,0*
0 Add four circle primitives for the rounded corners*
1,1,$1+$1,$2,$3*
1,1,$1+$1,$4,$5*
1,1,$1+$1,$6,$7*
1,1,$1+$1,$8,$9*
0 Add four rect primitives between the rounded corners*
20,1,$1+$1,$2,$3,$4,$5,0*
20,1,$1+$1,$4,$5,$6,$7,0*
20,1,$1+$1,$6,$7,$8,$9,0*
20,1,$1+$1,$8,$9,$2,$3,0*%
G04 Aperture macros list end*
%TA.AperFunction,ComponentPad*%
%ADD10RoundRect,0.750000X-0.750000X-0.750000X0.750000X-0.750000X0.750000X0.750000X-0.750000X0.750000X0*%
%TD*%
%TA.AperFunction,ComponentPad*%
%ADD11C,3.000000*%
%TD*%
%TA.AperFunction,ComponentPad*%
%ADD12R,1.980000X1.980000*%
%TD*%
%TA.AperFunction,ComponentPad*%
%ADD13C,1.980000*%
%TD*%
%TA.AperFunction,ComponentPad*%
%ADD14C,1.935000*%
%TD*%
%TA.AperFunction,ComponentPad*%
%ADD15RoundRect,0.250001X-1.149999X-1.149999X1.149999X-1.149999X1.149999X1.149999X-1.149999X1.149999X0*%
%TD*%
%TA.AperFunction,ComponentPad*%
%ADD16C,2.800000*%
%TD*%
%TA.AperFunction,ComponentPad*%
%ADD17RoundRect,0.250000X0.600000X0.750000X-0.600000X0.750000X-0.600000X-0.750000X0.600000X-0.750000X0*%
%TD*%
%TA.AperFunction,ComponentPad*%
%ADD18O,1.700000X2.000000*%
%TD*%
%TA.AperFunction,ComponentPad*%
%ADD19RoundRect,0.250001X1.149999X-1.149999X1.149999X1.149999X-1.149999X1.149999X-1.149999X-1.149999X0*%
%TD*%
%TA.AperFunction,ComponentPad*%
%ADD20C,0.700000*%
%TD*%
%TA.AperFunction,ComponentPad*%
%ADD21C,4.400000*%
%TD*%
%TA.AperFunction,ComponentPad*%
%ADD22C,1.800000*%
%TD*%
%TA.AperFunction,ComponentPad*%
%ADD23R,1.600000X1.600000*%
%TD*%
%TA.AperFunction,ComponentPad*%
%ADD24C,1.600000*%
%TD*%
%TA.AperFunction,SMDPad,CuDef*%
%ADD25R,2.540000X3.510000*%
%TD*%
%TA.AperFunction,ViaPad*%
%ADD26C,0.600000*%
%TD*%
%TA.AperFunction,Conductor*%
%ADD27C,1.000000*%
%TD*%
%TA.AperFunction,Conductor*%
%ADD28C,0.300000*%
%TD*%
%TA.AperFunction,Conductor*%
%ADD29C,0.500000*%
%TD*%
%TA.AperFunction,Conductor*%
%ADD30C,1.200000*%
%TD*%
%TA.AperFunction,Conductor*%
%ADD31C,0.400000*%
%TD*%
G04 APERTURE END LIST*
D10*
%TO.P,F1,1*%
%TO.N,LIVE*%
X131000000Y-49250000D03*
X138620000Y-49250000D03*
D11*
%TO.P,F1,2*%
%TO.N,FUSED_LIVE*%
X157590000Y-49250000D03*
X165210000Y-49250000D03*
%TD*%
D12*
%TO.P,K4,A1*%
%TO.N,/RELAY MODULES/5V*%
X85800000Y-80000000D03*
D13*
%TO.P,K4,A2*%
%TO.N,/RELAY MODULES/MOS_4*%
X85800000Y-92000000D03*
D14*
%TO.P,K4,COM*%
%TO.N,LIVE*%
X83800000Y-86000000D03*
D13*
%TO.P,K4,NC*%
%TO.N,unconnected-(K4-PadNC)*%
X98000000Y-80000000D03*
%TO.P,K4,NO*%
%TO.N,/RELAY MODULES/LIVE4*%
X98000000Y-92000000D03*
%TD*%
D15*
%TO.P,J2,1,Pin_1*%
%TO.N,/RELAY MODULES/LIVE1*%
X114000000Y-89435000D03*
D16*
%TO.P,J2,2,Pin_2*%
%TO.N,NEUTRAL*%
X119000000Y-89435000D03*
%TD*%
D17*
%TO.P,PS1,1,AC/L*%
%TO.N,FUSED_LIVE*%
X163385000Y-69000000D03*
D18*
%TO.P,PS1,2,AC/N*%
%TO.N,NEUTRAL*%
X163385000Y-64000000D03*
%TO.P,PS1,3,-Vout*%
%TO.N,GND*%
X134305000Y-74000000D03*
%TO.P,PS1,4,+Vout*%
%TO.N,/5V*%
X134305000Y-59000000D03*
%TD*%
D15*
%TO.P,J4,1,Pin_1*%
%TO.N,/RELAY MODULES/LIVE2*%
X145000000Y-89435000D03*
D16*
%TO.P,J4,2,Pin_2*%
%TO.N,NEUTRAL*%
X150000000Y-89435000D03*
%TD*%
D19*
%TO.P,J5,1,Pin_1*%
%TO.N,/RELAY MODULES/LIVE4*%
X163250000Y-86250000D03*
D16*
%TO.P,J5,2,Pin_2*%
%TO.N,NEUTRAL*%
X163250000Y-81250000D03*
%TD*%
D12*
%TO.P,K3,A1*%
%TO.N,/RELAY MODULES/5V*%
X85800000Y-45900000D03*
D13*
%TO.P,K3,A2*%
%TO.N,/RELAY MODULES/MOS_3*%
X85800000Y-57900000D03*
D14*
%TO.P,K3,COM*%
%TO.N,LIVE*%
X83800000Y-51900000D03*
D13*
%TO.P,K3,NC*%
%TO.N,unconnected-(K3-PadNC)*%
X98000000Y-45900000D03*
%TO.P,K3,NO*%
%TO.N,/RELAY MODULES/LIVE3*%
X98000000Y-57900000D03*
%TD*%
D15*
%TO.P,J3,1,Pin_1*%
%TO.N,/RELAY MODULES/LIVE3*%
X129500000Y-89435000D03*
D16*
%TO.P,J3,2,Pin_2*%
%TO.N,NEUTRAL*%
X134500000Y-89435000D03*
%TD*%
D20*
%TO.P,H3,1*%
%TO.N,N/C*%
X78933274Y-31833274D03*
X79416548Y-30666548D03*
X79416548Y-33000000D03*
X80583274Y-30183274D03*
D21*
X80583274Y-31833274D03*
D20*
X80583274Y-33483274D03*
X81750000Y-30666548D03*
X81750000Y-33000000D03*
X82233274Y-31833274D03*
%TD*%
D12*
%TO.P,K1,A1*%
%TO.N,/RELAY MODULES/5V*%
X85800000Y-28850000D03*
D13*
%TO.P,K1,A2*%
%TO.N,/RELAY MODULES/MOS_1*%
X85800000Y-40850000D03*
D14*
%TO.P,K1,COM*%
%TO.N,LIVE*%
X83800000Y-34850000D03*
D13*
%TO.P,K1,NC*%
%TO.N,unconnected-(K1-PadNC)*%
X98000000Y-28850000D03*
%TO.P,K1,NO*%
%TO.N,/RELAY MODULES/LIVE1*%
X98000000Y-40850000D03*
%TD*%
D20*
%TO.P,H2,1*%
%TO.N,N/C*%
X163350000Y-91833274D03*
X163833274Y-90666548D03*
X163833274Y-93000000D03*
X165000000Y-90183274D03*
D21*
X165000000Y-91833274D03*
D20*
X165000000Y-93483274D03*
X166166726Y-90666548D03*
X166166726Y-93000000D03*
X166650000Y-91833274D03*
%TD*%
%TO.P,H4,1*%
%TO.N,N/C*%
X163350000Y-31750000D03*
X163833274Y-30583274D03*
X163833274Y-32916726D03*
X165000000Y-30100000D03*
D21*
X165000000Y-31750000D03*
D20*
X165000000Y-33400000D03*
X166166726Y-30583274D03*
X166166726Y-32916726D03*
X166650000Y-31750000D03*
%TD*%
D12*
%TO.P,K2,A1*%
%TO.N,/RELAY MODULES/5V*%
X85800000Y-62950000D03*
D13*
%TO.P,K2,A2*%
%TO.N,/RELAY MODULES/MOS_2*%
X85800000Y-74950000D03*
D14*
%TO.P,K2,COM*%
%TO.N,LIVE*%
X83800000Y-68950000D03*
D13*
%TO.P,K2,NC*%
%TO.N,unconnected-(K2-PadNC)*%
X98000000Y-62950000D03*
%TO.P,K2,NO*%
%TO.N,/RELAY MODULES/LIVE2*%
X98000000Y-74950000D03*
%TD*%
D22*
%TO.P,RV1,1*%
%TO.N,/5V*%
X126000000Y-50750000D03*
%TO.P,RV1,2*%
%TO.N,GND*%
X122000000Y-58250000D03*
%TD*%
D20*
%TO.P,H1,1*%
%TO.N,N/C*%
X78600000Y-91850000D03*
X79083274Y-90683274D03*
X79083274Y-93016726D03*
X80250000Y-90200000D03*
D21*
X80250000Y-91850000D03*
D20*
X80250000Y-93500000D03*
X81416726Y-90683274D03*
X81416726Y-93016726D03*
X81900000Y-91850000D03*
%TD*%
D23*
%TO.P,RN1,1,common*%
%TO.N,3V3*%
X112250000Y-66500000D03*
D24*
%TO.P,RN1,2,R1*%
%TO.N,unconnected-(RN1-R1-Pad2)*%
X114790000Y-66500000D03*
%TO.P,RN1,3,R2*%
%TO.N,INT*%
X117330000Y-66500000D03*
%TO.P,RN1,4,R3*%
%TO.N,SCL*%
X119870000Y-66500000D03*
%TO.P,RN1,5,R4*%
%TO.N,SDA*%
X122410000Y-66500000D03*
%TD*%
D25*
%TO.P,J6,1,Pin_1*%
%TO.N,VBAT*%
X161000000Y-66250000D03*
%TO.P,J6,2,Pin_2*%
%TO.N,GND*%
X131640000Y-66250000D03*
%TD*%
D26*
%TO.N,GND*%
X127850000Y-37100000D03*
X154750000Y-31750000D03*
X105250000Y-79500000D03*
X118500000Y-49000000D03*
X127300000Y-35200000D03*
X122550000Y-44800000D03*
X143000000Y-39500000D03*
X121980025Y-41280025D03*
X138400000Y-33750000D03*
X110900000Y-47500000D03*
X109150000Y-44350000D03*
X106200000Y-65650000D03*
X126000000Y-44250000D03*
X138350000Y-27750000D03*
%TO.N,3V3*%
X117500000Y-30250000D03*
X113500000Y-45250000D03*
%TO.N,REL3*%
X132329996Y-38079996D03*
X126500000Y-38500000D03*
%TO.N,SCL*%
X123750000Y-32250000D03*
%TO.N,SDA*%
X126505216Y-36203057D03*
%TO.N,VBAT*%
X127250000Y-73000000D03*
%TD*%
D27*
%TO.N,GND*%
X131640000Y-71335000D02*
X134305000Y-74000000D01*
D28*
X121980025Y-41280025D02*
X121980025Y-44230025D01*
X127850000Y-35750000D02*
X127300000Y-35200000D01*
D29*
X109150000Y-44350000D02*
X109150000Y-45750000D01*
D28*
X127850000Y-37100000D02*
X127850000Y-35750000D01*
D27*
X131640000Y-66250000D02*
X131640000Y-71335000D01*
D28*
X121980025Y-44230025D02*
X122550000Y-44800000D01*
X138350000Y-33700000D02*
X138400000Y-33750000D01*
X138350000Y-27750000D02*
X138350000Y-33700000D01*
D29*
X109150000Y-45750000D02*
X110900000Y-47500000D01*
%TO.N,3V3*%
X113500000Y-45250000D02*
X113500000Y-34250000D01*
X113500000Y-34250000D02*
X117500000Y-30250000D01*
D30*
%TO.N,LIVE*%
X100233857Y-29149000D02*
X92382857Y-37000000D01*
X131399000Y-29149000D02*
X100233857Y-29149000D01*
X83800000Y-68950000D02*
X83800000Y-86000000D01*
X83800000Y-37000000D02*
X83800000Y-51900000D01*
X131000000Y-49250000D02*
X133430996Y-46819004D01*
X83800000Y-34850000D02*
X83800000Y-37000000D01*
X83800000Y-51900000D02*
X83800000Y-68950000D01*
X92382857Y-37000000D02*
X83800000Y-37000000D01*
X133430996Y-31180996D02*
X131399000Y-29149000D01*
X133430996Y-46819004D02*
X133430996Y-31180996D01*
%TO.N,/RELAY MODULES/LIVE1*%
X114000000Y-89435000D02*
X114000000Y-90834999D01*
X103389942Y-91446000D02*
X102596971Y-90653029D01*
X113388999Y-91446000D02*
X103389942Y-91446000D01*
X102596971Y-45446971D02*
X98000000Y-40850000D01*
X114000000Y-90834999D02*
X113388999Y-91446000D01*
X102596971Y-90653029D02*
X102596971Y-45446971D01*
%TO.N,/RELAY MODULES/LIVE3*%
X126088000Y-92847000D02*
X102809628Y-92847000D01*
X102809628Y-92847000D02*
X101192000Y-91229372D01*
X101192000Y-91229372D02*
X101192000Y-61092000D01*
X101192000Y-61092000D02*
X98000000Y-57900000D01*
X129500000Y-89435000D02*
X126088000Y-92847000D01*
%TO.N,/RELAY MODULES/LIVE2*%
X99791000Y-76741000D02*
X99791000Y-91809686D01*
X145000000Y-89435000D02*
X145000000Y-91000000D01*
X98000000Y-74950000D02*
X99791000Y-76741000D01*
X141752000Y-94248000D02*
X102229314Y-94248000D01*
X145000000Y-91000000D02*
X141752000Y-94248000D01*
X99791000Y-91809686D02*
X102229314Y-94248000D01*
%TO.N,/RELAY MODULES/LIVE4*%
X153851000Y-95649000D02*
X163250000Y-86250000D01*
X101649000Y-95649000D02*
X153851000Y-95649000D01*
X98000000Y-92000000D02*
X101649000Y-95649000D01*
D31*
%TO.N,REL3*%
X132159992Y-38250000D02*
X126750000Y-38250000D01*
X126750000Y-38250000D02*
X126500000Y-38500000D01*
X132329996Y-38079996D02*
X132159992Y-38250000D01*
%TO.N,SCL*%
X119870000Y-36130000D02*
X123750000Y-32250000D01*
X119870000Y-66500000D02*
X119870000Y-36130000D01*
%TO.N,SDA*%
X122410000Y-66500000D02*
X123301000Y-65609000D01*
X123301000Y-65609000D02*
X123301000Y-39407273D01*
X123301000Y-39407273D02*
X126505216Y-36203057D01*
D27*
%TO.N,VBAT*%
X130250000Y-76000000D02*
X127250000Y-73000000D01*
X151250000Y-76000000D02*
X130250000Y-76000000D01*
X161000000Y-66250000D02*
X151250000Y-76000000D01*
%TD*%
%TA.AperFunction,Conductor*%
%TO.N,GND*%
G36*
X116810363Y-30019185D02*
G01*
X116856118Y-30071989D01*
X116866062Y-30141147D01*
X116837037Y-30204703D01*
X116831005Y-30211180D01*
X114916052Y-32126133D01*
X113175245Y-33866940D01*
X113175244Y-33866940D01*
X113175245Y-33866941D01*
X113099500Y-33942686D01*
X113033608Y-34056812D01*
X112999500Y-34184108D01*
X112999500Y-44982710D01*
X112990063Y-45030159D01*
X112987016Y-45037513D01*
X112985249Y-45044108D01*
X112949500Y-45177525D01*
X112949500Y-45322475D01*
X112987016Y-45462485D01*
X112987017Y-45462488D01*
X113059488Y-45588011D01*
X113059490Y-45588013D01*
X113059491Y-45588015D01*
X113161985Y-45690509D01*
X113161986Y-45690510D01*
X113161988Y-45690511D01*
X113287511Y-45762982D01*
X113287512Y-45762982D01*
X113287515Y-45762984D01*
X113427525Y-45800500D01*
X113427528Y-45800500D01*
X113572472Y-45800500D01*
X113572475Y-45800500D01*
X113712485Y-45762984D01*
X113838015Y-45690509D01*
X113940509Y-45588015D01*
X114012984Y-45462485D01*
X114050500Y-45322475D01*
X114050500Y-45177525D01*
X114012984Y-45037515D01*
X114012983Y-45037513D01*
X114009937Y-45030159D01*
X114000500Y-44982710D01*
X114000500Y-34508674D01*
X114020185Y-34441635D01*
X114036814Y-34420998D01*
X117664904Y-30792907D01*
X117705135Y-30766028D01*
X117712478Y-30762985D01*
X117712485Y-30762984D01*
X117838015Y-30690509D01*
X117940509Y-30588015D01*
X118012984Y-30462485D01*
X118050500Y-30322475D01*
X118050500Y-30177525D01*
X118044623Y-30155592D01*
X118046286Y-30085743D01*
X118085449Y-30027881D01*
X118149677Y-30000377D01*
X118164398Y-29999500D01*
X130995349Y-29999500D01*
X131062388Y-30019185D01*
X131083030Y-30035819D01*
X132544177Y-31496965D01*
X132577662Y-31558288D01*
X132580496Y-31584646D01*
X132580496Y-37415598D01*
X132560811Y-37482637D01*
X132508007Y-37528392D01*
X132438849Y-37538336D01*
X132424407Y-37535373D01*
X132402471Y-37529496D01*
X132257521Y-37529496D01*
X132128989Y-37563936D01*
X132117507Y-37567013D01*
X131991984Y-37639484D01*
X131991978Y-37639489D01*
X131889489Y-37741978D01*
X131884539Y-37748430D01*
X131882363Y-37746760D01*
X131841503Y-37785718D01*
X131784687Y-37799500D01*
X126690691Y-37799500D01*
X126621944Y-37817920D01*
X126576112Y-37830201D01*
X126576107Y-37830204D01*
X126532695Y-37855267D01*
X126532696Y-37855268D01*
X126473383Y-37889512D01*
X126431716Y-37931178D01*
X126376133Y-37963269D01*
X126287516Y-37987015D01*
X126287511Y-37987017D01*
X126161988Y-38059488D01*
X126161982Y-38059493D01*
X126059493Y-38161982D01*
X126059488Y-38161988D01*
X125987017Y-38287511D01*
X125987016Y-38287515D01*
X125949500Y-38427525D01*
X125949500Y-38572475D01*
X125983805Y-38700500D01*
X125987017Y-38712488D01*
X126059488Y-38838011D01*
X126059490Y-38838013D01*
X126059491Y-38838015D01*
X126161985Y-38940509D01*
X126161986Y-38940510D01*
X126161988Y-38940511D01*
X126287511Y-39012982D01*
X126287512Y-39012982D01*
X126287515Y-39012984D01*
X126427525Y-39050500D01*
X126427528Y-39050500D01*
X126572472Y-39050500D01*
X126572475Y-39050500D01*
X126712485Y-39012984D01*
X126838015Y-38940509D01*
X126940509Y-38838015D01*
X126984108Y-38762500D01*
X127034675Y-38714284D01*
X127091495Y-38700500D01*
X132219300Y-38700500D01*
X132219301Y-38700500D01*
X132309665Y-38676286D01*
X132333879Y-38669799D01*
X132392234Y-38636107D01*
X132397328Y-38633752D01*
X132401236Y-38633171D01*
X132417266Y-38626531D01*
X132424400Y-38624620D01*
X132454052Y-38625324D01*
X132466439Y-38623484D01*
X132471434Y-38625737D01*
X132494247Y-38626279D01*
X132552111Y-38665439D01*
X132579618Y-38729667D01*
X132580496Y-38744393D01*
X132580496Y-44876000D01*
X132560811Y-44943039D01*
X132508007Y-44988794D01*
X132456496Y-45000000D01*
X128999999Y-45000000D01*
X129215063Y-73603404D01*
X129195884Y-73670589D01*
X129143425Y-73716740D01*
X129074343Y-73727203D01*
X129010571Y-73698657D01*
X129003386Y-73692017D01*
X127728421Y-72417052D01*
X127728417Y-72417049D01*
X127728416Y-72417048D01*
X127605494Y-72334916D01*
X127605492Y-72334915D01*
X127605490Y-72334914D01*
X127468912Y-72278342D01*
X127468906Y-72278340D01*
X127323919Y-72249500D01*
X127323917Y-72249500D01*
X127176083Y-72249500D01*
X127176081Y-72249500D01*
X127031093Y-72278340D01*
X127031087Y-72278342D01*
X126894509Y-72334914D01*
X126894502Y-72334918D01*
X126832418Y-72376400D01*
X126771584Y-72417048D01*
X126771582Y-72417049D01*
X126771579Y-72417052D01*
X126771578Y-72417052D01*
X126667052Y-72521578D01*
X126667052Y-72521579D01*
X126667049Y-72521582D01*
X126667048Y-72521584D01*
X126626400Y-72582418D01*
X126584918Y-72644502D01*
X126584914Y-72644509D01*
X126528342Y-72781087D01*
X126528340Y-72781093D01*
X126499500Y-72926080D01*
X126499500Y-72926083D01*
X126499500Y-73073917D01*
X126499500Y-73073919D01*
X126499499Y-73073919D01*
X126528340Y-73218906D01*
X126528342Y-73218912D01*
X126584916Y-73355494D01*
X126667048Y-73478416D01*
X126667051Y-73478419D01*
X126667052Y-73478420D01*
X126667052Y-73478421D01*
X129197486Y-76008853D01*
X129230971Y-76070176D01*
X129233801Y-76095602D01*
X129250000Y-78250000D01*
X158626000Y-78250000D01*
X158693039Y-78269685D01*
X158738794Y-78322489D01*
X158750000Y-78374000D01*
X158750000Y-84626000D01*
X158730315Y-84693039D01*
X158677511Y-84738794D01*
X158626000Y-84750000D01*
X103571471Y-84750000D01*
X103504432Y-84730315D01*
X103458677Y-84677511D01*
X103447471Y-84626000D01*
X103447471Y-65675321D01*
X111199500Y-65675321D01*
X111199500Y-67324678D01*
X111214032Y-67397735D01*
X111214033Y-67397739D01*
X111214034Y-67397740D01*
X111269399Y-67480601D01*
X111313595Y-67510131D01*
X111352260Y-67535966D01*
X111352264Y-67535967D01*
X111425321Y-67550499D01*
X111425324Y-67550500D01*
X111425326Y-67550500D01*
X113074676Y-67550500D01*
X113074677Y-67550499D01*
X113147740Y-67535966D01*
X113230601Y-67480601D01*
X113285966Y-67397740D01*
X113300500Y-67324674D01*
X113300500Y-66396530D01*
X113739500Y-66396530D01*
X113739500Y-66603469D01*
X113779868Y-66806412D01*
X113779870Y-66806420D01*
X113859058Y-66997596D01*
X113974024Y-67169657D01*
X114120342Y-67315975D01*
X114120345Y-67315977D01*
X114292402Y-67430941D01*
X114483580Y-67510130D01*
X114686530Y-67550499D01*
X114686534Y-67550500D01*
X114686535Y-67550500D01*
X114893466Y-67550500D01*
X114893467Y-67550499D01*
X115096420Y-67510130D01*
X115287598Y-67430941D01*
X115459655Y-67315977D01*
X115605977Y-67169655D01*
X115720941Y-66997598D01*
X115800130Y-66806420D01*
X115840500Y-66603465D01*
X115840500Y-66396535D01*
X115840499Y-66396530D01*
X116279500Y-66396530D01*
X116279500Y-66603469D01*
X116319868Y-66806412D01*
X116319870Y-66806420D01*
X116399058Y-66997596D01*
X116514024Y-67169657D01*
X116660342Y-67315975D01*
X116660345Y-67315977D01*
X116832402Y-67430941D01*
X117023580Y-67510130D01*
X117226530Y-67550499D01*
X117226534Y-67550500D01*
X117226535Y-67550500D01*
X117433466Y-67550500D01*
X117433467Y-67550499D01*
X117636420Y-67510130D01*
X117827598Y-67430941D01*
X117999655Y-67315977D01*
X118145977Y-67169655D01*
X118260941Y-66997598D01*
X118340130Y-66806420D01*
X118380500Y-66603465D01*
X118380500Y-66396535D01*
X118380499Y-66396530D01*
X118819500Y-66396530D01*
X118819500Y-66603469D01*
X118859868Y-66806412D01*
X118859870Y-66806420D01*
X118939058Y-66997596D01*
X119054024Y-67169657D01*
X119200342Y-67315975D01*
X119200345Y-67315977D01*
X119372402Y-67430941D01*
X119563580Y-67510130D01*
X119766530Y-67550499D01*
X119766534Y-67550500D01*
X119766535Y-67550500D01*
X119973466Y-67550500D01*
X119973467Y-67550499D01*
X120176420Y-67510130D01*
X120367598Y-67430941D01*
X120539655Y-67315977D01*
X120685977Y-67169655D01*
X120800941Y-66997598D01*
X120880130Y-66806420D01*
X120920500Y-66603465D01*
X120920500Y-66396535D01*
X120880130Y-66193580D01*
X120800941Y-66002402D01*
X120685977Y-65830345D01*
X120685975Y-65830342D01*
X120539655Y-65684022D01*
X120375609Y-65574411D01*
X120330804Y-65520799D01*
X120320500Y-65471309D01*
X120320500Y-58139818D01*
X120600000Y-58139818D01*
X120600000Y-58360181D01*
X120634473Y-58577835D01*
X120702567Y-58787410D01*
X120802611Y-58983756D01*
X120848932Y-59047513D01*
X121600000Y-58296445D01*
X121600000Y-58302661D01*
X121627259Y-58404394D01*
X121679920Y-58495606D01*
X121754394Y-58570080D01*
X121845606Y-58622741D01*
X121947339Y-58650000D01*
X121953552Y-58650000D01*
X121202485Y-59401065D01*
X121202485Y-59401066D01*
X121266243Y-59447388D01*
X121462589Y-59547432D01*
X121672164Y-59615526D01*
X121889819Y-59650000D01*
X122110181Y-59650000D01*
X122327835Y-59615526D01*
X122537412Y-59547431D01*
X122670204Y-59479770D01*
X122738873Y-59466873D01*
X122803614Y-59493149D01*
X122843872Y-59550255D01*
X122850500Y-59590254D01*
X122850500Y-65365445D01*
X122830815Y-65432484D01*
X122778011Y-65478239D01*
X122708853Y-65488183D01*
X122702309Y-65487062D01*
X122513469Y-65449500D01*
X122513465Y-65449500D01*
X122306535Y-65449500D01*
X122306530Y-65449500D01*
X122103587Y-65489868D01*
X122103579Y-65489870D01*
X121912403Y-65569058D01*
X121740342Y-65684024D01*
X121594024Y-65830342D01*
X121479058Y-66002403D01*
X121399870Y-66193579D01*
X121399868Y-66193587D01*
X121359500Y-66396530D01*
X121359500Y-66603469D01*
X121399868Y-66806412D01*
X121399870Y-66806420D01*
X121479058Y-66997596D01*
X121594024Y-67169657D01*
X121740342Y-67315975D01*
X121740345Y-67315977D01*
X121912402Y-67430941D01*
X122103580Y-67510130D01*
X122306530Y-67550499D01*
X122306534Y-67550500D01*
X122306535Y-67550500D01*
X122513466Y-67550500D01*
X122513467Y-67550499D01*
X122716420Y-67510130D01*
X122907598Y-67430941D01*
X123079655Y-67315977D01*
X123225977Y-67169655D01*
X123340941Y-66997598D01*
X123420130Y-66806420D01*
X123460500Y-66603465D01*
X123460500Y-66396535D01*
X123422009Y-66203027D01*
X123428236Y-66133437D01*
X123455940Y-66091161D01*
X123661489Y-65885614D01*
X123720798Y-65782887D01*
X123720799Y-65782886D01*
X123751500Y-65668309D01*
X123751500Y-50659448D01*
X124849500Y-50659448D01*
X124849500Y-50840551D01*
X124877829Y-51019410D01*
X124933787Y-51191636D01*
X124933788Y-51191639D01*
X125016006Y-51352997D01*
X125122441Y-51499494D01*
X125122445Y-51499499D01*
X125250500Y-51627554D01*
X125250505Y-51627558D01*
X125378287Y-51720396D01*
X125397006Y-51733996D01*
X125502484Y-51787740D01*
X125558360Y-51816211D01*
X125558363Y-51816212D01*
X125644476Y-51844191D01*
X125730591Y-51872171D01*
X125813429Y-51885291D01*
X125909449Y-51900500D01*
X125909454Y-51900500D01*
X126090551Y-51900500D01*
X126177259Y-51886765D01*
X126269409Y-51872171D01*
X126441639Y-51816211D01*
X126602994Y-51733996D01*
X126749501Y-51627553D01*
X126877553Y-51499501D01*
X126983996Y-51352994D01*
X127066211Y-51191639D01*
X127122171Y-51019409D01*
X127139316Y-50911158D01*
X127150500Y-50840551D01*
X127150500Y-50659448D01*
X127133704Y-50553407D01*
X127122171Y-50480591D01*
X127066211Y-50308361D01*
X127066211Y-50308360D01*
X127023538Y-50224612D01*
X126983996Y-50147006D01*
X126919356Y-50058036D01*
X126877558Y-50000505D01*
X126877554Y-50000500D01*
X126749499Y-49872445D01*
X126749494Y-49872441D01*
X126602997Y-49766006D01*
X126602996Y-49766005D01*
X126602994Y-49766004D01*
X126551300Y-49739664D01*
X126441639Y-49683788D01*
X126441636Y-49683787D01*
X126269410Y-49627829D01*
X126090551Y-49599500D01*
X126090546Y-49599500D01*
X125909454Y-49599500D01*
X125909449Y-49599500D01*
X125730589Y-49627829D01*
X125558363Y-49683787D01*
X125558360Y-49683788D01*
X125397002Y-49766006D01*
X125250505Y-49872441D01*
X125250500Y-49872445D01*
X125122445Y-50000500D01*
X125122441Y-50000505D01*
X125016006Y-50147002D01*
X124933788Y-50308360D01*
X124933787Y-50308363D01*
X124877829Y-50480589D01*
X124849500Y-50659448D01*
X123751500Y-50659448D01*
X123751500Y-39645238D01*
X123771185Y-39578199D01*
X123787819Y-39557557D01*
X125057865Y-38287511D01*
X126573498Y-36771877D01*
X126629081Y-36739786D01*
X126717701Y-36716041D01*
X126843231Y-36643566D01*
X126945725Y-36541072D01*
X127018200Y-36415542D01*
X127055716Y-36275532D01*
X127055716Y-36130582D01*
X127018200Y-35990572D01*
X126998307Y-35956117D01*
X126945727Y-35865045D01*
X126945722Y-35865039D01*
X126843233Y-35762550D01*
X126843227Y-35762545D01*
X126717704Y-35690074D01*
X126717705Y-35690074D01*
X126706222Y-35686997D01*
X126577691Y-35652557D01*
X126432741Y-35652557D01*
X126304209Y-35686997D01*
X126292727Y-35690074D01*
X126167204Y-35762545D01*
X126167198Y-35762550D01*
X126064709Y-35865039D01*
X126064704Y-35865045D01*
X125992233Y-35990568D01*
X125992231Y-35990573D01*
X125968485Y-36079190D01*
X125936392Y-36134775D01*
X123437999Y-38633171D01*
X122940511Y-39130659D01*
X122940509Y-39130661D01*
X122940509Y-39130662D01*
X122881201Y-39233385D01*
X122881200Y-39233390D01*
X122850500Y-39347964D01*
X122850500Y-56909745D01*
X122830815Y-56976784D01*
X122778011Y-57022539D01*
X122708853Y-57032483D01*
X122670205Y-57020230D01*
X122537410Y-56952567D01*
X122327835Y-56884473D01*
X122110181Y-56850000D01*
X121889819Y-56850000D01*
X121672164Y-56884473D01*
X121462589Y-56952567D01*
X121266233Y-57052616D01*
X121202485Y-57098931D01*
X121202485Y-57098932D01*
X121953553Y-57850000D01*
X121947339Y-57850000D01*
X121845606Y-57877259D01*
X121754394Y-57929920D01*
X121679920Y-58004394D01*
X121627259Y-58095606D01*
X121600000Y-58197339D01*
X121600000Y-58203553D01*
X120848932Y-57452485D01*
X120848931Y-57452485D01*
X120802616Y-57516233D01*
X120702567Y-57712589D01*
X120634473Y-57922164D01*
X120600000Y-58139818D01*
X120320500Y-58139818D01*
X120320500Y-36367965D01*
X120340185Y-36300926D01*
X120356819Y-36280284D01*
X120984546Y-35652557D01*
X123818282Y-32818820D01*
X123873865Y-32786729D01*
X123962485Y-32762984D01*
X124088015Y-32690509D01*
X124190509Y-32588015D01*
X124262984Y-32462485D01*
X124300500Y-32322475D01*
X124300500Y-32177525D01*
X124262984Y-32037515D01*
X124190509Y-31911985D01*
X124088015Y-31809491D01*
X124088013Y-31809490D01*
X124088011Y-31809488D01*
X123962488Y-31737017D01*
X123962489Y-31737017D01*
X123951006Y-31733940D01*
X123822475Y-31699500D01*
X123677525Y-31699500D01*
X123548993Y-31733940D01*
X123537511Y-31737017D01*
X123411988Y-31809488D01*
X123411982Y-31809493D01*
X123309493Y-31911982D01*
X123309488Y-31911988D01*
X123237017Y-32037511D01*
X123237015Y-32037516D01*
X123213269Y-32126133D01*
X123181176Y-32181718D01*
X119509513Y-35853383D01*
X119509509Y-35853389D01*
X119450201Y-35956112D01*
X119450200Y-35956117D01*
X119419500Y-36070691D01*
X119419500Y-65471309D01*
X119399815Y-65538348D01*
X119364391Y-65574411D01*
X119200344Y-65684022D01*
X119054024Y-65830342D01*
X118939058Y-66002403D01*
X118859870Y-66193579D01*
X118859868Y-66193587D01*
X118819500Y-66396530D01*
X118380499Y-66396530D01*
X118340130Y-66193580D01*
X118260941Y-66002402D01*
X118145977Y-65830345D01*
X118145975Y-65830342D01*
X117999657Y-65684024D01*
X117877287Y-65602260D01*
X117827598Y-65569059D01*
X117780499Y-65549550D01*
X117636420Y-65489870D01*
X117636412Y-65489868D01*
X117433469Y-65449500D01*
X117433465Y-65449500D01*
X117226535Y-65449500D01*
X117226530Y-65449500D01*
X117023587Y-65489868D01*
X117023579Y-65489870D01*
X116832403Y-65569058D01*
X116660342Y-65684024D01*
X116514024Y-65830342D01*
X116399058Y-66002403D01*
X116319870Y-66193579D01*
X116319868Y-66193587D01*
X116279500Y-66396530D01*
X115840499Y-66396530D01*
X115800130Y-66193580D01*
X115720941Y-66002402D01*
X115605977Y-65830345D01*
X115605975Y-65830342D01*
X115459657Y-65684024D01*
X115337287Y-65602260D01*
X115287598Y-65569059D01*
X115240499Y-65549550D01*
X115096420Y-65489870D01*
X115096412Y-65489868D01*
X114893469Y-65449500D01*
X114893465Y-65449500D01*
X114686535Y-65449500D01*
X114686530Y-65449500D01*
X114483587Y-65489868D01*
X114483579Y-65489870D01*
X114292403Y-65569058D01*
X114120342Y-65684024D01*
X113974024Y-65830342D01*
X113859058Y-66002403D01*
X113779870Y-66193579D01*
X113779868Y-66193587D01*
X113739500Y-66396530D01*
X113300500Y-66396530D01*
X113300500Y-65675326D01*
X113300500Y-65675323D01*
X113300499Y-65675321D01*
X113285967Y-65602264D01*
X113285966Y-65602260D01*
X113263782Y-65569059D01*
X113230601Y-65519399D01*
X113147740Y-65464034D01*
X113147739Y-65464033D01*
X113147735Y-65464032D01*
X113074677Y-65449500D01*
X113074674Y-65449500D01*
X111425326Y-65449500D01*
X111425323Y-65449500D01*
X111352264Y-65464032D01*
X111352260Y-65464033D01*
X111269399Y-65519399D01*
X111214033Y-65602260D01*
X111214032Y-65602264D01*
X111199500Y-65675321D01*
X103447471Y-65675321D01*
X103447471Y-45363203D01*
X103447470Y-45363199D01*
X103414788Y-45198895D01*
X103414787Y-45198889D01*
X103396008Y-45153555D01*
X103350675Y-45044108D01*
X103283143Y-44943039D01*
X103270898Y-44924713D01*
X103250020Y-44858035D01*
X103250000Y-44855822D01*
X103250000Y-43750000D01*
X102154151Y-43750000D01*
X102087112Y-43730315D01*
X102066470Y-43713681D01*
X101786319Y-43433530D01*
X101752834Y-43372207D01*
X101750000Y-43345849D01*
X101750000Y-30123500D01*
X101769685Y-30056461D01*
X101822489Y-30010706D01*
X101874000Y-29999500D01*
X116743324Y-29999500D01*
X116810363Y-30019185D01*
G37*
%TD.AperFunction*%
%TA.AperFunction,Conductor*%
G36*
X115650117Y-26900477D02*
G01*
X115650172Y-26900500D01*
X115699335Y-26900500D01*
X115749714Y-26900523D01*
X115749714Y-26900522D01*
X115761642Y-26900528D01*
X115761938Y-26900500D01*
X156150172Y-26900500D01*
X164707416Y-26900500D01*
X164711009Y-26901690D01*
X164751452Y-26900500D01*
X164762947Y-26900500D01*
X164764522Y-26900509D01*
X165158410Y-26905516D01*
X165168809Y-26906087D01*
X165565006Y-26944609D01*
X165575333Y-26946055D01*
X165966892Y-27017771D01*
X165977043Y-27020076D01*
X166361169Y-27124473D01*
X166371091Y-27127623D01*
X166745089Y-27263970D01*
X166754736Y-27267955D01*
X167115912Y-27435267D01*
X167125186Y-27440048D01*
X167471008Y-27637151D01*
X167479852Y-27642697D01*
X167807880Y-27868199D01*
X167816209Y-27874458D01*
X167998594Y-28023909D01*
X168124092Y-28126746D01*
X168131882Y-28133697D01*
X168417456Y-28410995D01*
X168424633Y-28418577D01*
X168685862Y-28718908D01*
X168692376Y-28727067D01*
X168927413Y-29048306D01*
X168933218Y-29056984D01*
X169140401Y-29396860D01*
X169145455Y-29405995D01*
X169323314Y-29762096D01*
X169327582Y-29771625D01*
X169474852Y-30141422D01*
X169478303Y-30151275D01*
X169593945Y-30532153D01*
X169596555Y-30542262D01*
X169679747Y-30931520D01*
X169681497Y-30941812D01*
X169731650Y-31336687D01*
X169732528Y-31347091D01*
X169749390Y-31747270D01*
X169749500Y-31752490D01*
X169749500Y-44876000D01*
X169729815Y-44943039D01*
X169677011Y-44988794D01*
X169625500Y-45000000D01*
X134405496Y-45000000D01*
X134338457Y-44980315D01*
X134292702Y-44927511D01*
X134281496Y-44876000D01*
X134281496Y-31612378D01*
X162549500Y-31612378D01*
X162549500Y-31887621D01*
X162580315Y-32161108D01*
X162580317Y-32161124D01*
X162641561Y-32429453D01*
X162641565Y-32429465D01*
X162732467Y-32689246D01*
X162851884Y-32937218D01*
X162851886Y-32937221D01*
X162998319Y-33170268D01*
X163169925Y-33385455D01*
X163364545Y-33580075D01*
X163579732Y-33751681D01*
X163812779Y-33898114D01*
X164060757Y-34017534D01*
X164255865Y-34085805D01*
X164320534Y-34108434D01*
X164320546Y-34108438D01*
X164588879Y-34169683D01*
X164862378Y-34200499D01*
X164862379Y-34200500D01*
X164862383Y-34200500D01*
X165137621Y-34200500D01*
X165137621Y-34200499D01*
X165411121Y-34169683D01*
X165679454Y-34108438D01*
X165939243Y-34017534D01*
X166187221Y-33898114D01*
X166420268Y-33751681D01*
X166635455Y-33580075D01*
X166830075Y-33385455D01*
X167001681Y-33170268D01*
X167148114Y-32937221D01*
X167267534Y-32689243D01*
X167358438Y-32429454D01*
X167419683Y-32161121D01*
X167450500Y-31887617D01*
X167450500Y-31612383D01*
X167419683Y-31338879D01*
X167358438Y-31070546D01*
X167267534Y-30810757D01*
X167148114Y-30562779D01*
X167001681Y-30329732D01*
X166830075Y-30114545D01*
X166635455Y-29919925D01*
X166420268Y-29748319D01*
X166187221Y-29601886D01*
X166187218Y-29601884D01*
X165939246Y-29482467D01*
X165679465Y-29391565D01*
X165679453Y-29391561D01*
X165411124Y-29330317D01*
X165411108Y-29330315D01*
X165137621Y-29299500D01*
X165137617Y-29299500D01*
X164862383Y-29299500D01*
X164862379Y-29299500D01*
X164588891Y-29330315D01*
X164588875Y-29330317D01*
X164320546Y-29391561D01*
X164320534Y-29391565D01*
X164060753Y-29482467D01*
X163812781Y-29601884D01*
X163579733Y-29748318D01*
X163364545Y-29919924D01*
X163169924Y-30114545D01*
X162998318Y-30329733D01*
X162851884Y-30562781D01*
X162732467Y-30810753D01*
X162641565Y-31070534D01*
X162641561Y-31070546D01*
X162580317Y-31338875D01*
X162580315Y-31338891D01*
X162549500Y-31612378D01*
X134281496Y-31612378D01*
X134281496Y-31097228D01*
X134281495Y-31097224D01*
X134250582Y-30941812D01*
X134248812Y-30932914D01*
X134184699Y-30778133D01*
X134091622Y-30638834D01*
X133973158Y-30520370D01*
X133471973Y-30019185D01*
X131941165Y-28488375D01*
X131941161Y-28488372D01*
X131801866Y-28395297D01*
X131801863Y-28395296D01*
X131692416Y-28349962D01*
X131692414Y-28349961D01*
X131647086Y-28331185D01*
X131647074Y-28331182D01*
X131482771Y-28298500D01*
X131482767Y-28298500D01*
X101874000Y-28298500D01*
X101806961Y-28278815D01*
X101761206Y-28226011D01*
X101750000Y-28174500D01*
X101750000Y-27018187D01*
X101769685Y-26951148D01*
X101822489Y-26905393D01*
X101874053Y-26894187D01*
X115650117Y-26900477D01*
G37*
%TD.AperFunction*%
%TD*%
M02*
